<mxfile host="app.diagrams.net" modified="2023-08-25T02:07:36.770Z" agent="Mozilla/5.0 (Windows NT 10.0; Win64; x64) AppleWebKit/537.36 (KHTML, like Gecko) Chrome/116.0.0.0 Safari/537.36" version="21.6.8" etag="HC8WddM7b9l-u2BR852_" type="github">
  <diagram name="Page-1" id="MOItkJcjBXx9iOqgdBm2">
    <mxGraphModel>
      <root>
        <mxCell id="0" />
        <mxCell id="1" parent="0" />
      </root>
    </mxGraphModel>
  </diagram>
</mxfile>
